<?xml version="1.0" standalone="no"?>
<!DOCTYPE svg PUBLIC "-//W3C//DTD SVG 20010904//EN"
 "http://www.w3.org/TR/2001/REC-SVG-20010904/DTD/svg10.dtd">
<svg version="1.0" xmlns="http://www.w3.org/2000/svg"
 width="900.000000pt" height="900.000000pt" viewBox="0 0 900.000000 900.000000"
 preserveAspectRatio="xMidYMid meet">
<metadata>
Created by potrace 1.10, written by Peter Selinger 2001-2011
</metadata>
<g transform="translate(0.000000,900.000000) scale(0.100000,-0.100000)"
fill="#000000" stroke="none">
<path d="M4713 7917 c-52 -19 -78 -51 -78 -97 0 -58 31 -84 130 -107 73 -18
80 -21 80 -44 0 -22 -4 -24 -58 -27 -41 -2 -66 2 -83 12 -31 21 -50 20 -74 -4
-24 -24 -20 -34 23 -57 24 -13 57 -18 127 -18 85 0 98 2 128 24 28 22 32 30
32 71 0 36 -5 51 -22 66 -32 28 -75 45 -133 53 -45 5 -50 9 -50 31 0 24 3 25
55 24 30 -1 68 -5 83 -9 21 -6 31 -3 42 11 23 30 18 53 -12 60 -16 3 -41 10
-57 15 -38 12 -93 10 -133 -4z"/>
<path d="M4200 7891 l-105 -17 3 -54 c2 -30 9 -82 17 -115 7 -33 16 -79 18
-103 3 -24 8 -46 11 -49 8 -9 228 -3 262 6 21 5 30 14 32 33 5 41 -14 47 -108
37 -94 -11 -110 -8 -110 19 0 31 20 40 102 48 80 7 98 19 79 52 -8 14 -27 17
-108 17 -98 0 -98 0 -98 25 0 24 3 25 90 33 100 10 117 18 113 56 -3 23 -8 26
-48 28 -25 0 -92 -6 -150 -16z"/>
<path d="M5192 7854 c-45 -20 -70 -72 -52 -113 15 -36 40 -54 116 -80 32 -12
62 -25 66 -29 14 -14 -2 -42 -29 -48 -26 -7 -107 19 -135 43 -15 13 -20 13
-42 -4 -36 -25 -29 -44 29 -75 43 -24 62 -28 132 -28 73 0 85 3 112 26 26 21
31 33 31 68 0 32 -6 48 -22 62 -28 24 -92 54 -117 54 -10 0 -26 9 -37 21 -18
20 -18 21 1 35 22 17 74 11 122 -14 31 -16 33 -15 58 8 23 21 24 25 9 41 -39
43 -176 62 -242 33z"/>
<path d="M3675 7800 c-55 -20 -105 -71 -105 -107 0 -77 121 -129 216 -93 21 8
31 7 45 -6 26 -23 24 -31 -13 -54 -37 -22 -117 -27 -136 -8 -10 10 -18 7 -39
-14 -37 -37 -25 -55 41 -63 119 -15 217 20 250 89 17 35 16 38 -5 76 -28 49
-69 63 -173 58 -69 -3 -71 -2 -71 21 0 20 7 27 35 34 19 5 49 7 67 4 22 -4 36
0 48 13 53 58 -50 90 -160 50z"/>
<path d="M5682 7728 c-10 -18 -43 -82 -72 -142 -52 -104 -53 -109 -35 -122 21
-15 44 -18 61 -6 18 12 142 274 137 289 -3 7 -20 13 -38 13 -27 0 -37 -6 -53
-32z"/>
<path d="M5946 7618 c-48 -25 -59 -35 -80 -75 -21 -41 -19 -110 3 -148 40 -69
164 -116 246 -94 93 25 145 83 145 162 0 130 -187 222 -314 155z m151 -60 c51
-22 73 -48 73 -89 0 -31 -6 -43 -37 -68 -69 -57 -170 -32 -189 45 -10 38 20
92 59 109 40 18 58 18 94 3z"/>
<path d="M2954 7566 c-13 -9 -25 -36 -33 -71 -15 -65 -29 -74 -77 -51 -65 31
-154 14 -154 -30 0 -9 43 -27 105 -43 56 -15 97 -41 91 -58 -4 -9 -11 -43 -16
-77 -5 -34 -13 -74 -16 -90 -7 -28 -6 -29 27 -22 54 10 79 41 79 97 0 60 7 79
31 79 19 0 26 -2 87 -33 19 -9 40 -17 48 -17 25 0 97 41 88 50 -14 13 -126 67
-155 74 -15 3 -37 14 -49 24 -23 18 -23 19 -7 67 10 27 17 64 17 82 0 28 -4
33 -23 33 -12 0 -32 -6 -43 -14z"/>
<path d="M6398 7314 c-60 -57 -108 -111 -108 -119 0 -13 36 -45 52 -45 4 0 37
27 74 60 36 33 71 57 76 54 7 -4 9 -45 6 -111 -5 -101 -4 -105 20 -124 14 -10
29 -19 34 -19 14 0 228 211 228 225 0 15 -33 45 -50 45 -7 0 -37 -21 -67 -46
-74 -64 -83 -58 -83 60 0 89 -1 95 -25 110 -13 9 -30 16 -37 16 -7 0 -61 -48
-120 -106z"/>
<path d="M4455 7340 c-66 -4 -151 -13 -190 -19 -38 -7 -110 -18 -160 -27 -118
-19 -229 -42 -285 -59 -25 -7 -74 -20 -110 -30 -36 -9 -76 -22 -90 -27 -14 -6
-38 -14 -55 -19 -138 -37 -388 -149 -610 -274 -177 -99 -402 -272 -566 -435
-175 -174 -272 -295 -372 -465 -26 -44 -52 -87 -57 -95 -10 -18 -75 -152 -94
-195 -8 -16 -19 -43 -27 -60 -34 -79 -109 -301 -109 -324 0 -8 -6 -37 -14 -65
-43 -154 -51 -234 -50 -531 0 -159 3 -302 7 -317 9 -33 29 -35 84 -12 69 30
97 42 178 74 44 17 94 37 110 45 17 7 50 20 75 30 25 10 59 23 75 30 17 7 50
21 75 30 25 9 59 23 75 30 17 7 50 20 75 30 25 9 58 23 73 31 16 8 35 14 42
14 7 0 26 6 42 14 15 8 64 29 108 46 44 17 94 37 110 45 17 7 50 20 75 30 25
10 59 23 75 30 17 8 66 28 110 45 44 17 94 38 110 45 17 7 102 43 190 80 88
37 196 85 241 106 78 38 114 48 114 31 0 -9 -55 -52 -66 -52 -3 0 -23 -12 -43
-27 -40 -31 -67 -48 -96 -63 -11 -6 -33 -19 -50 -29 -49 -32 -129 -69 -260
-121 -44 -18 -95 -39 -112 -46 -18 -8 -48 -20 -65 -28 -18 -7 -69 -28 -113
-46 -44 -17 -93 -37 -110 -45 -16 -7 -50 -20 -75 -30 -25 -10 -58 -23 -75 -30
-16 -7 -48 -20 -70 -28 -22 -8 -75 -29 -117 -46 -43 -17 -113 -45 -155 -62
-43 -17 -96 -38 -118 -46 -22 -9 -53 -21 -70 -28 -16 -7 -50 -21 -75 -30 -25
-10 -58 -23 -75 -30 -16 -7 -50 -21 -75 -30 -25 -10 -56 -23 -70 -30 -14 -7
-36 -15 -50 -19 -14 -3 -36 -14 -49 -25 -24 -18 -24 -19 -7 -66 9 -27 16 -63
16 -81 0 -18 7 -40 16 -48 19 -19 15 -20 61 0 64 28 96 41 143 59 44 17 67 26
140 58 19 8 55 23 80 32 25 10 59 23 75 31 17 7 48 20 69 29 35 16 42 16 71 2
43 -21 92 -115 76 -146 -7 -11 -18 -21 -25 -21 -12 0 -70 -23 -191 -75 -16 -7
-50 -20 -75 -30 -25 -9 -58 -23 -75 -30 -16 -7 -50 -20 -75 -30 -25 -10 -58
-23 -75 -31 -16 -7 -51 -21 -77 -31 -55 -21 -59 -34 -27 -101 24 -48 34 -49
107 -17 50 23 91 40 177 75 44 17 94 37 110 45 17 7 50 20 75 30 44 17 67 27
143 59 21 9 45 16 53 16 40 0 144 -81 144 -112 0 -17 -68 -68 -91 -68 -6 0
-23 -6 -37 -14 -15 -8 -47 -22 -72 -31 -25 -10 -60 -24 -77 -31 -18 -8 -48
-20 -65 -28 -18 -7 -53 -21 -78 -31 -25 -10 -60 -24 -77 -31 -18 -8 -48 -20
-65 -28 -18 -7 -53 -22 -78 -32 -25 -10 -48 -20 -52 -23 -4 -3 6 -31 21 -61
31 -60 43 -64 106 -35 17 7 66 28 110 45 44 18 94 38 110 45 77 32 102 43 135
57 208 93 401 168 431 168 24 0 42 -7 58 -24 22 -23 22 -25 7 -75 -17 -59 -51
-111 -71 -111 -8 0 -31 -7 -52 -16 -21 -9 -53 -23 -70 -30 -18 -8 -48 -20 -65
-28 -18 -8 -85 -35 -148 -61 -63 -26 -128 -53 -145 -60 -16 -7 -66 -28 -110
-45 -108 -43 -145 -63 -145 -75 0 -5 20 -32 44 -60 l43 -50 34 17 c19 9 70 31
114 48 44 18 95 39 113 46 17 8 47 20 65 27 17 8 48 21 67 29 19 9 71 30 115
48 44 18 94 38 110 45 17 7 50 21 75 30 25 10 59 23 75 30 17 8 66 28 110 45
44 18 95 39 113 46 17 8 47 20 65 28 17 7 68 28 112 46 44 18 94 38 110 45 17
8 82 35 145 60 127 52 158 65 210 87 19 9 55 23 80 33 25 10 59 23 75 30 17 8
66 28 110 45 44 18 95 39 113 46 77 33 100 42 142 59 42 17 65 26 143 59 17 7
68 28 112 46 44 17 94 38 110 45 17 7 66 27 110 45 96 38 129 52 175 72 19 9
69 29 110 46 282 113 414 168 473 198 32 16 67 19 67 5 0 -23 -159 -113 -321
-181 -68 -29 -139 -58 -156 -66 -78 -33 -102 -43 -173 -72 -102 -41 -298 -121
-335 -137 -16 -7 -66 -28 -110 -45 -44 -18 -95 -39 -112 -46 -78 -33 -101 -42
-143 -59 -25 -10 -58 -23 -75 -30 -16 -8 -66 -28 -110 -45 -44 -18 -95 -39
-112 -46 -80 -34 -101 -43 -143 -59 -25 -9 -58 -23 -75 -30 -16 -7 -66 -27
-110 -45 -44 -18 -95 -39 -112 -46 -18 -8 -48 -20 -65 -28 -18 -7 -69 -28
-113 -46 -44 -18 -93 -38 -110 -45 -16 -7 -66 -28 -110 -45 -44 -18 -93 -38
-110 -45 -16 -7 -66 -28 -110 -45 -44 -18 -96 -39 -115 -48 -48 -21 -87 -37
-140 -57 -45 -18 -74 -30 -140 -58 -19 -9 -71 -30 -115 -47 -76 -31 -132 -54
-165 -70 -27 -13 -23 -41 11 -76 36 -37 62 -42 106 -20 15 8 48 22 73 32 25 9
73 30 108 46 34 15 66 28 71 28 5 0 22 6 38 14 15 8 80 36 143 61 63 26 130
54 147 61 18 8 49 21 68 29 19 8 50 21 67 29 18 8 101 42 183 76 83 34 166 69
185 78 19 8 50 21 68 29 17 7 47 19 65 27 17 7 52 21 77 31 46 18 74 30 145
60 22 10 55 24 73 31 18 7 47 20 65 27 17 8 52 22 77 32 43 17 69 28 143 59
17 8 84 35 147 61 63 26 130 53 148 61 17 8 48 21 67 29 19 8 50 21 68 29 17
7 68 28 112 46 44 17 94 38 110 45 17 7 66 27 110 45 97 38 141 57 178 76 16
8 33 14 38 14 5 0 39 14 76 31 102 45 123 55 178 79 106 47 282 134 320 159
59 38 78 49 95 57 52 25 188 148 313 282 26 29 52 52 57 52 16 0 12 -46 -5
-60 -8 -7 -15 -17 -15 -22 0 -29 -149 -187 -245 -259 -118 -89 -339 -207 -570
-303 -16 -7 -47 -20 -68 -29 -20 -9 -53 -23 -72 -31 -20 -9 -51 -22 -70 -30
-20 -9 -50 -22 -68 -30 -17 -7 -84 -35 -147 -61 -63 -25 -128 -52 -145 -60
-16 -7 -50 -20 -75 -30 -25 -10 -61 -24 -80 -33 -19 -8 -50 -21 -67 -29 -18
-7 -48 -19 -65 -27 -18 -7 -69 -28 -113 -46 -44 -18 -96 -39 -115 -48 -19 -8
-50 -21 -68 -28 -18 -7 -47 -20 -65 -28 -17 -7 -68 -28 -112 -46 -77 -31 -109
-44 -178 -73 -17 -8 -52 -22 -77 -32 -25 -10 -61 -24 -80 -33 -50 -21 -85 -36
-175 -72 -75 -30 -94 -38 -177 -74 -18 -8 -85 -35 -148 -61 -63 -26 -130 -54
-147 -61 -63 -28 -99 -43 -248 -104 -170 -71 -208 -87 -248 -106 -16 -8 -33
-14 -38 -14 -18 0 -139 -62 -139 -71 0 -13 77 -89 160 -159 36 -30 67 -58 68
-62 8 -17 74 -6 143 23 75 32 90 38 189 82 30 14 80 35 110 47 72 29 91 37
240 103 30 14 80 35 110 47 30 12 71 29 90 38 19 8 49 21 65 28 17 7 60 27 98
43 37 17 73 31 80 31 7 0 17 4 23 9 5 5 54 28 108 51 54 23 106 45 115 49 9 5
33 15 54 24 20 9 52 23 70 31 17 8 40 17 49 20 10 3 20 17 23 31 3 14 7 36 10
50 21 99 172 135 249 58 61 -62 59 -142 -7 -198 -35 -31 -47 -35 -94 -35 -41
0 -63 6 -91 25 -20 14 -40 25 -45 25 -5 0 -34 -12 -65 -26 -96 -43 -140 -63
-224 -98 -18 -8 -51 -22 -73 -32 -22 -9 -56 -24 -75 -32 -19 -9 -51 -22 -70
-30 -19 -9 -51 -22 -70 -30 -19 -9 -51 -22 -70 -30 -19 -9 -50 -22 -67 -29
-50 -21 -92 -39 -166 -72 -37 -17 -71 -31 -76 -31 -5 0 -22 -6 -38 -14 -47
-24 -85 -40 -293 -126 -69 -29 -129 -56 -135 -60 -5 -4 -22 -10 -37 -14 -38
-9 -35 -28 10 -62 20 -15 39 -31 42 -34 8 -9 109 -80 115 -80 2 0 26 -15 52
-32 54 -37 101 -42 154 -16 32 15 50 23 142 62 20 9 54 23 75 32 20 9 53 23
72 31 19 8 48 21 63 29 16 8 33 14 38 14 5 0 39 14 76 31 38 16 82 36 98 43
17 7 47 21 67 30 21 9 52 23 70 30 45 19 110 47 129 56 8 5 91 40 184 80 93
40 176 75 184 80 9 4 34 15 56 24 22 10 53 24 68 32 16 8 33 14 38 14 5 0 39
14 76 31 111 49 126 56 183 79 70 28 91 47 84 74 -6 26 19 100 43 124 26 27
86 52 123 52 55 0 128 -47 156 -102 17 -34 18 -86 1 -126 -35 -83 -169 -118
-240 -62 -29 23 -68 26 -105 6 -27 -14 -74 -35 -134 -59 -18 -8 -50 -21 -70
-30 -21 -9 -54 -24 -73 -32 -19 -8 -51 -22 -70 -30 -19 -8 -51 -22 -70 -30
-19 -9 -49 -22 -67 -30 -18 -8 -63 -28 -101 -44 -37 -17 -71 -31 -76 -31 -5 0
-22 -6 -38 -14 -27 -14 -77 -36 -138 -62 -16 -7 -55 -24 -85 -37 -30 -14 -80
-35 -110 -47 -30 -13 -77 -33 -105 -45 -27 -13 -106 -46 -175 -75 -69 -29
-141 -59 -160 -68 -19 -8 -48 -21 -65 -28 -16 -6 -46 -19 -65 -27 -19 -9 -43
-18 -52 -21 -10 -3 -18 -13 -18 -23 0 -20 98 -70 329 -168 55 -24 99 -24 148
0 21 10 52 24 68 31 17 6 47 19 68 28 20 9 52 22 70 30 17 7 48 20 67 29 19 8
51 22 70 30 19 8 52 22 72 31 21 9 53 23 73 32 19 8 50 21 70 30 85 36 111 47
126 54 8 5 91 40 184 80 93 40 176 76 184 80 15 7 46 21 123 55 18 8 63 28
101 44 37 17 69 31 72 31 3 0 35 14 72 31 103 47 123 56 188 84 33 15 80 36
105 47 25 11 52 23 61 28 8 4 76 34 149 65 73 31 141 60 149 65 9 4 33 14 54
23 38 17 52 23 162 72 61 27 94 42 200 90 33 15 80 36 105 47 25 11 73 33 107
49 35 16 65 29 68 29 5 0 63 26 200 90 33 15 83 38 110 50 28 13 58 30 67 38
16 14 16 16 -2 40 -29 37 -28 137 3 173 37 43 73 59 128 59 124 0 215 -127
161 -227 -31 -57 -66 -76 -146 -79 -60 -2 -84 -8 -142 -37 -62 -31 -116 -57
-249 -117 -22 -10 -70 -32 -108 -49 -37 -17 -69 -31 -72 -31 -3 0 -35 -14 -72
-31 -77 -36 -157 -72 -223 -101 -55 -23 -85 -37 -173 -77 -37 -17 -69 -31 -72
-31 -3 0 -35 -14 -72 -31 -38 -17 -84 -38 -103 -46 -19 -9 -42 -19 -51 -23 -8
-5 -76 -34 -149 -65 -73 -31 -141 -60 -149 -65 -9 -4 -33 -14 -53 -24 -72 -31
-108 -47 -140 -61 -38 -16 -98 -42 -183 -80 -66 -29 -108 -47 -158 -68 -36
-16 -83 -37 -142 -63 -22 -9 -53 -23 -70 -30 -36 -14 -76 -32 -168 -73 -37
-17 -71 -31 -76 -31 -5 0 -22 -6 -38 -14 -26 -13 -50 -24 -138 -62 -19 -8 -52
-22 -72 -31 -57 -25 -105 -45 -138 -59 -16 -6 -47 -19 -67 -28 -21 -9 -52 -23
-70 -30 -111 -47 -133 -69 -80 -79 15 -3 59 -15 97 -27 39 -12 88 -25 110 -29
22 -5 60 -13 85 -19 184 -44 237 -50 278 -28 15 7 45 22 67 31 22 10 47 21 56
25 8 5 91 40 184 80 93 40 176 76 184 80 9 4 32 15 51 23 19 8 52 22 72 31 21
9 53 23 73 32 65 27 100 43 168 73 37 17 69 31 72 31 5 0 76 31 268 119 37 17
69 31 72 31 3 0 35 14 72 31 38 16 82 36 98 43 17 7 46 20 65 29 19 9 62 28
95 42 63 28 130 58 180 80 17 8 56 26 88 40 54 24 57 28 57 60 0 21 11 52 25
75 57 90 183 92 250 4 23 -30 28 -46 27 -91 0 -62 -15 -84 -74 -114 -50 -25
-83 -24 -142 6 -54 27 -67 30 -94 16 -9 -5 -33 -16 -52 -24 -19 -8 -55 -24
-80 -35 -67 -30 -161 -72 -195 -87 -16 -8 -57 -26 -90 -40 -63 -28 -127 -57
-185 -83 -19 -8 -48 -21 -65 -27 -16 -7 -47 -20 -67 -29 -76 -33 -113 -49
-129 -56 -8 -5 -76 -34 -149 -65 -73 -31 -141 -60 -149 -65 -15 -7 -40 -18
-126 -54 -20 -9 -50 -22 -68 -30 -17 -7 -57 -24 -87 -36 -55 -22 -98 -41 -223
-99 -37 -17 -71 -31 -76 -31 -19 0 -81 -42 -75 -51 3 -5 107 -9 232 -9 217 0
370 12 527 42 33 6 83 14 110 18 62 9 212 46 290 72 17 5 44 13 60 18 38 11
92 29 130 45 17 7 50 21 75 30 105 42 262 117 340 163 19 11 53 30 75 42 22
12 59 35 83 51 24 16 46 29 49 29 3 0 22 13 43 30 21 17 41 30 45 30 11 0 165
120 265 206 286 247 544 597 685 929 15 36 37 86 59 138 9 21 16 44 16 52 0 8
6 29 14 47 90 215 140 589 117 886 -19 245 -58 416 -156 692 -17 49 -155 329
-183 371 -9 15 -32 52 -50 83 -102 172 -257 361 -453 551 -309 299 -675 524
-1109 680 -33 12 -86 28 -195 59 -59 16 -173 39 -307 61 -114 18 -478 27 -653
15z m28 -312 c8 -22 -13 -48 -38 -48 -14 0 -42 -6 -62 -14 -117 -42 -196 -56
-208 -36 -9 15 152 79 201 80 11 1 30 7 44 15 31 18 57 19 63 3z m-733 -34
c30 -12 46 -27 61 -56 19 -37 19 -40 3 -73 -9 -20 -20 -38 -25 -40 -8 -5 1
-30 48 -135 13 -30 31 -71 39 -90 9 -19 22 -48 30 -63 8 -16 14 -33 14 -38 0
-8 49 -122 69 -159 5 -9 68 -155 141 -325 73 -171 137 -315 142 -322 5 -7 8
-22 6 -35 -4 -29 -45 -38 -54 -11 -3 10 -9 25 -14 33 -4 9 -60 139 -125 290
-65 151 -121 281 -125 290 -4 8 -14 32 -24 53 -9 20 -23 52 -30 70 -59 131
-79 177 -127 290 -31 75 -59 127 -67 127 -30 0 -83 34 -103 66 -18 30 -20 39
-9 65 13 31 51 63 85 72 11 2 21 5 22 6 2 0 21 -6 43 -15z m1764 -45 c72 -33
91 -61 91 -131 0 -57 -2 -62 -38 -93 -44 -38 -44 -37 5 -145 16 -36 35 -78 42
-95 7 -16 21 -48 30 -70 10 -22 25 -56 33 -75 8 -19 19 -42 23 -51 5 -9 27
-61 50 -115 23 -54 46 -103 51 -109 22 -22 3 -55 -32 -55 -9 0 -58 101 -123
255 -36 85 -50 117 -95 215 -11 25 -33 76 -50 115 -16 38 -35 73 -43 76 -7 4
-33 15 -57 25 -60 25 -89 50 -106 91 -21 49 -19 74 8 114 44 66 131 86 211 48z
m-832 -60 c68 -18 116 -81 149 -198 65 -227 -39 -335 -356 -372 -49 -6 -119
-8 -154 -5 -103 9 -161 70 -205 215 -32 108 -9 215 57 265 58 43 164 78 312
102 82 12 131 11 197 -7z m500 -174 c14 -32 7 -39 -63 -66 -87 -34 -107 -35
-118 -8 -12 29 12 54 67 69 21 5 44 14 52 20 26 17 50 11 62 -15z m785 1 c34
-16 63 -39 82 -67 50 -68 39 -127 -34 -191 l-30 -26 17 -36 c10 -20 24 -51 31
-69 8 -17 23 -52 35 -77 71 -154 72 -157 53 -174 -10 -9 -21 -16 -24 -16 -6 0
-48 86 -91 185 -7 17 -30 64 -50 106 -35 74 -38 77 -78 83 -78 13 -148 91
-148 164 0 62 87 142 155 142 17 0 53 -11 82 -24z m-2440 -151 c19 -38 39 -77
43 -85 4 -9 67 -155 140 -325 73 -170 136 -316 140 -325 4 -8 14 -32 23 -53 9
-20 23 -52 31 -70 7 -17 31 -72 51 -122 21 -49 42 -95 47 -102 5 -7 7 -21 3
-33 -8 -25 -55 -29 -55 -4 0 9 -6 28 -13 42 -8 15 -21 44 -30 65 -29 65 -47
106 -64 144 -9 21 -19 45 -23 53 -4 9 -60 139 -125 290 -65 151 -121 281 -125
290 -34 71 -108 252 -110 270 -9 66 26 48 67 -35z m-302 36 c0 -13 -7 -27 -15
-31 -43 -22 -98 -41 -125 -43 -27 -2 -30 1 -30 26 0 30 3 31 105 67 42 15 65
8 65 -19z m1999 13 c26 -10 21 -63 -6 -73 -72 -26 -96 -34 -125 -38 -28 -5
-33 -2 -39 23 -8 30 11 51 56 60 14 3 39 11 55 19 36 16 39 17 59 9z m-1938
-119 c3 -13 4 -29 2 -35 -2 -6 -40 -24 -86 -39 -78 -27 -82 -27 -98 -10 -21
24 -14 51 16 60 14 4 48 16 75 27 68 27 83 27 91 -3z m1998 -8 c33 -25 17 -59
-39 -80 -77 -30 -114 -33 -130 -11 -21 28 -19 33 28 53 23 10 58 26 77 34 44
20 43 20 64 4z m1149 -47 c81 -51 110 -117 81 -182 -25 -55 -78 -88 -144 -88
-164 0 -249 183 -127 271 56 41 124 40 190 -1z m-3099 -66 c21 -20 20 -43 -1
-50 -10 -3 -31 -12 -46 -20 -16 -7 -35 -14 -43 -14 -8 0 -25 -7 -37 -15 -20
-13 -25 -13 -45 1 -32 22 -29 62 6 70 15 3 43 12 62 19 75 29 83 30 104 9z
m-430 -10 c16 -6 56 -87 101 -204 9 -25 23 -58 31 -73 8 -16 14 -36 14 -46 0
-9 7 -26 15 -37 8 -10 15 -28 15 -40 0 -11 7 -29 15 -40 8 -10 15 -25 15 -32
0 -8 6 -28 14 -45 12 -30 23 -56 62 -159 9 -24 22 -56 29 -73 7 -16 21 -50 30
-75 10 -25 23 -58 30 -75 8 -16 28 -66 45 -110 18 -44 40 -95 49 -113 12 -24
13 -37 5 -50 -21 -32 -38 -24 -62 30 -12 29 -29 67 -36 83 -7 17 -21 50 -31
75 -9 25 -23 59 -30 75 -7 17 -19 48 -28 70 -8 22 -29 76 -47 120 -18 44 -38
97 -46 118 -8 20 -21 56 -30 80 -8 23 -22 55 -30 70 -8 16 -14 36 -14 46 0 9
-7 26 -15 37 -8 10 -15 27 -15 37 0 11 -6 31 -14 45 -13 25 -28 62 -63 157 -8
22 -21 55 -29 72 -7 18 -11 39 -8 48 7 17 7 17 28 9z m2454 -24 c3 -17 -4 -31
-21 -45 l-25 -20 19 -40 c11 -22 32 -67 46 -100 14 -33 38 -88 55 -123 28 -61
30 -102 6 -102 -17 0 -48 31 -48 48 0 7 -6 26 -14 40 -8 15 -23 47 -34 72 -11
25 -31 70 -45 100 -13 30 -27 63 -30 73 -5 12 -17 17 -45 17 -21 0 -43 5 -50
12 -19 19 -14 45 11 51 12 3 45 14 72 25 66 27 99 25 103 -8z m-2636 -97 c105
-41 148 -100 148 -202 0 -60 -4 -73 -30 -109 -45 -62 -111 -92 -205 -92 -112
0 -182 43 -220 135 -44 108 8 216 127 263 65 25 124 27 180 5z m668 -2 c18
-35 21 -33 -108 -87 -32 -13 -48 -15 -60 -7 -26 16 -21 55 8 69 105 50 143 56
160 25z m1198 -86 c13 -28 31 -66 39 -85 8 -19 22 -51 30 -70 9 -19 22 -48 29
-65 7 -16 27 -60 43 -98 38 -83 40 -117 8 -117 -19 0 -28 11 -47 58 -13 31
-36 86 -52 122 -29 65 -43 97 -74 168 -8 20 -22 50 -30 65 -15 31 -18 60 -7
71 16 16 38 -2 61 -49z m-1139 -37 c12 -19 11 -23 -5 -35 -10 -7 -21 -13 -26
-13 -13 0 -9 -50 6 -78 14 -26 63 -147 93 -227 15 -40 29 -75 57 -138 7 -17
28 -68 46 -112 17 -44 38 -93 46 -108 27 -54 11 -119 -21 -86 -7 8 -36 70 -65
139 -29 69 -58 139 -65 155 -7 17 -28 66 -45 110 -17 44 -38 94 -45 110 -7 17
-27 66 -46 110 -18 44 -35 83 -39 87 -3 4 -20 2 -38 -4 -28 -11 -33 -10 -47 7
-23 31 -18 39 33 58 26 10 61 25 77 32 44 20 68 18 84 -7z m1579 3 c23 -20 30
-55 12 -66 -18 -11 -11 -43 25 -119 40 -86 41 -89 19 -106 -22 -19 -35 -2 -79
103 -34 80 -40 87 -66 87 -17 0 -34 8 -43 22 -21 29 -20 31 10 67 20 24 34 31
62 31 21 -1 47 -9 60 -19z m-648 -175 c0 -17 -24 -38 -33 -29 -15 15 -6 43 13
43 11 0 20 -6 20 -14z m2328 -8 c183 -14 184 -15 82 -117 -59 -60 -299 -251
-314 -251 -3 0 -34 -20 -70 -45 -37 -25 -68 -45 -70 -45 -4 0 -118 -64 -176
-99 -22 -14 -388 -195 -440 -219 -25 -11 -72 -32 -105 -47 -33 -14 -76 -33
-95 -42 -35 -15 -77 -34 -135 -59 -16 -7 -60 -27 -98 -43 -37 -17 -72 -31 -78
-31 -6 0 -23 -6 -37 -13 -44 -22 -130 -60 -247 -107 -44 -18 -95 -39 -112 -46
-78 -33 -101 -42 -143 -59 -25 -10 -58 -23 -75 -30 -16 -8 -66 -28 -110 -45
-44 -17 -93 -38 -110 -45 -16 -7 -66 -27 -110 -45 -44 -17 -93 -38 -110 -45
-16 -7 -66 -27 -110 -45 -77 -31 -109 -44 -178 -73 -17 -8 -52 -22 -77 -32
-42 -17 -65 -26 -142 -59 -18 -7 -69 -28 -113 -46 -44 -17 -93 -37 -110 -45
-16 -7 -50 -20 -75 -30 -25 -9 -58 -23 -73 -31 -31 -15 -67 -19 -67 -6 0 11
31 33 214 157 424 286 441 300 832 690 199 199 274 285 307 358 22 48 21 65
-3 104 -35 59 -102 78 -163 47 -27 -14 -151 -106 -222 -165 -119 -100 -155
-132 -151 -137 7 -6 73 12 124 34 38 16 78 18 87 4 3 -6 -2 -13 -12 -16 -17
-5 -40 -15 -116 -48 -17 -7 -57 -24 -87 -36 -87 -35 -159 -71 -240 -119 -119
-70 -234 -146 -249 -165 -16 -19 -16 -19 153 -195 32 -33 56 -67 53 -74 -5
-14 -152 -117 -166 -117 -11 0 -143 146 -193 213 -21 29 -43 53 -48 55 -6 2
-29 -9 -52 -25 -74 -49 -176 -96 -195 -88 -16 6 -14 9 11 28 84 63 498 347
519 356 5 2 37 22 71 46 33 23 90 62 126 86 97 67 134 93 140 100 5 6 137 103
308 226 55 40 120 81 144 92 116 49 305 30 473 -49 83 -39 188 -138 183 -173
-3 -25 -8 -25 -118 -9 -263 40 -270 40 -294 -4 -33 -59 -106 -142 -322 -364
-207 -214 -254 -264 -254 -272 0 -13 46 -9 77 6 37 18 76 35 213 91 63 26 133
56 155 65 22 10 67 30 100 45 128 56 252 120 290 148 127 96 204 204 205 288
0 79 -87 178 -207 234 -43 20 -53 33 -30 39 6 2 48 16 92 30 44 15 94 31 110
36 17 4 46 14 65 21 19 6 51 17 70 24 33 12 91 29 200 60 152 44 228 62 365
89 44 8 107 20 140 27 33 6 87 15 120 19 33 4 71 11 85 15 27 9 278 31 375 34
33 0 129 -4 213 -11z m-4452 -79 c8 -14 -21 -43 -35 -35 -6 4 -11 16 -11 27 0
21 34 27 46 8z m550 -134 c5 -20 54 -143 79 -200 7 -16 23 -55 35 -85 28 -70
43 -87 85 -94 42 -8 79 -37 94 -75 11 -25 10 -35 -8 -69 -52 -102 -221 -69
-221 44 0 25 6 47 15 54 19 15 19 40 1 77 -19 39 -38 85 -76 178 -17 44 -38
94 -45 110 -23 51 -27 75 -15 90 15 18 47 0 56 -30z m3844 -189 c0 -7 -20 -52
-45 -100 -65 -128 -152 -235 -260 -321 -27 -22 -52 -43 -55 -46 -10 -11 -186
-128 -228 -150 -78 -42 -156 -84 -197 -106 -65 -34 -325 -156 -400 -187 -16
-7 -48 -21 -70 -30 -64 -29 -95 -42 -180 -76 -44 -18 -93 -38 -110 -45 -16 -8
-82 -34 -145 -60 -63 -26 -128 -52 -145 -60 -16 -7 -50 -20 -75 -30 -25 -10
-61 -24 -80 -33 -50 -21 -89 -37 -140 -57 -25 -10 -60 -24 -77 -31 -18 -8 -48
-20 -65 -28 -18 -7 -53 -21 -78 -31 -25 -10 -60 -24 -77 -31 -18 -8 -48 -20
-65 -28 -18 -7 -53 -21 -78 -31 -25 -9 -58 -23 -75 -30 -16 -7 -50 -20 -75
-30 -25 -10 -58 -23 -75 -30 -16 -7 -50 -21 -75 -30 -25 -10 -58 -23 -75 -30
-16 -8 -66 -28 -110 -45 -44 -17 -93 -37 -110 -45 -16 -7 -48 -19 -70 -28 -62
-23 -197 -77 -230 -92 -62 -27 -96 -38 -102 -32 -5 6 16 78 40 137 5 14 13 41
17 60 8 35 27 93 39 119 4 8 34 25 67 38 32 14 72 31 87 39 16 8 35 14 42 14
7 0 26 6 42 14 36 17 86 39 143 61 53 20 92 36 140 57 19 9 71 30 115 48 90
36 125 51 175 72 19 9 55 23 80 33 42 17 65 26 143 59 17 7 68 28 112 46 44
17 94 38 110 45 17 7 66 27 110 45 75 30 97 39 178 74 17 8 100 42 182 76 83
34 164 67 180 75 17 7 86 36 155 65 69 29 150 63 180 77 30 13 70 30 88 38 74
33 161 72 257 115 109 50 423 207 490 246 33 19 69 39 80 44 11 6 32 18 47 28
15 9 57 36 95 60 37 23 88 58 113 76 44 34 60 37 60 12z m-4293 -7 c7 -7 27
-13 46 -14 83 -5 187 -133 187 -229 0 -69 -47 -166 -80 -166 -11 0 -20 -10
-23 -27 -14 -67 -225 -107 -276 -52 -11 12 -21 15 -31 9 -18 -11 -95 43 -125
90 -47 72 -44 195 7 241 16 16 26 33 23 42 -8 19 32 56 97 89 57 29 154 38
175 17z m4671 -277 c15 -10 21 -20 16 -31 -3 -9 -9 -24 -11 -33 -6 -21 -18
-22 -61 -7 -38 13 -43 25 -25 67 15 36 31 37 81 4z m220 -165 c3 -22 -1 -27
-18 -27 -23 0 -35 22 -26 46 10 25 41 12 44 -19z m-4500 -80 c4 -20 -25 -34
-40 -19 -15 15 -1 44 19 40 10 -2 19 -11 21 -21z m-750 -147 l33 -20 -23 -30
c-25 -35 -20 -33 -53 -18 -22 10 -25 16 -19 42 11 54 14 55 62 26z m5084 -10
c107 -50 178 -132 212 -244 16 -50 17 -66 7 -110 -23 -103 -75 -173 -164 -222
-47 -26 -61 -28 -152 -28 -91 1 -106 3 -166 32 -272 131 -294 461 -39 584 25
12 63 17 137 17 94 1 108 -2 165 -29z m-3679 -312 c53 -58 97 -113 97 -122 0
-33 -38 -14 -100 52 -131 135 -143 150 -136 167 11 31 42 10 139 -97z m-279
-42 c43 -18 106 -112 106 -159 0 -45 -3 -47 -152 -103 -24 -9 -56 -22 -73 -29
-16 -7 -66 -27 -110 -45 -44 -17 -93 -38 -110 -46 -51 -24 -90 -28 -104 -10
-12 14 -11 19 4 36 10 11 25 20 33 20 7 0 26 6 40 14 15 8 46 23 69 33 49 21
54 43 19 86 l-22 28 -19 -21 c-10 -11 -26 -20 -36 -20 -10 0 -21 -4 -24 -10
-3 -5 -15 -10 -27 -10 -15 0 -18 4 -13 18 4 9 11 37 16 61 5 24 13 49 18 55 5
6 11 22 13 36 4 35 39 48 154 60 53 6 100 12 102 15 10 10 84 5 116 -9z m3194
-177 c34 -26 62 -69 62 -94 0 -10 -14 -34 -32 -52 l-31 -33 25 -52 c44 -91
108 -246 108 -263 0 -9 -7 -18 -15 -22 -17 -6 -55 23 -55 43 0 7 -7 25 -15 41
-15 29 -47 101 -85 191 -20 47 -25 52 -54 52 -38 0 -71 22 -91 60 -23 45 -18
75 19 114 30 32 39 36 86 36 37 0 59 -6 78 -21z m238 -91 c63 -76 81 -166 45
-236 -28 -54 -57 -78 -76 -62 -17 14 -20 41 -6 55 4 6 16 31 26 56 16 46 16
48 -4 95 -12 27 -25 51 -29 54 -4 3 -16 15 -27 28 -16 20 -17 25 -5 32 27 17
48 11 76 -22z m-506 -153 c3 -27 14 -62 24 -77 16 -24 78 -78 89 -78 2 0 25
-9 51 -21 41 -18 45 -22 36 -40 -29 -53 -166 12 -228 108 -53 84 -55 167 -4
161 24 -3 28 -8 32 -53z m-430 -89 c133 -33 227 -107 296 -236 15 -28 19 -56
19 -145 l0 -110 -38 -57 c-62 -92 -133 -137 -249 -159 -55 -10 -81 -10 -135 0
-189 35 -304 141 -346 317 -16 68 -16 74 2 142 51 195 241 299 451 248z m610
-330 c0 -14 -4 -27 -9 -30 -15 -10 -41 5 -41 23 0 23 9 31 32 31 12 0 18 -7
18 -24z m-360 -715 c0 -27 -13 -33 -35 -17 -21 15 -12 36 16 36 12 0 19 -7 19
-19z"/>
<path d="M5415 6893 c-45 -12 -58 -65 -25 -101 15 -16 32 -22 64 -22 36 0 47
5 61 26 16 25 16 29 1 60 -8 19 -21 34 -28 34 -7 0 -22 2 -33 4 -11 2 -29 2
-40 -1z"/>
<path d="M4405 6813 c-99 -26 -145 -46 -181 -81 -32 -31 -34 -36 -34 -104 0
-100 31 -181 83 -219 36 -26 48 -29 115 -29 119 0 288 48 339 96 32 30 33 34
33 107 0 90 -26 165 -73 215 -31 32 -31 32 -126 31 -53 0 -123 -8 -156 -16z
m224 -38 c16 -8 38 -32 49 -54 23 -43 38 -145 28 -184 -11 -46 -86 -76 -256
-103 -77 -12 -88 -11 -120 4 -20 10 -44 33 -56 56 -26 45 -40 155 -25 184 21
40 86 67 231 96 89 18 116 18 149 1z"/>
<path d="M5838 6633 c-27 -32 -29 -42 -14 -71 25 -49 83 -64 136 -37 39 20 42
70 7 103 -30 28 -106 31 -129 5z"/>
<path d="M6324 6387 c-47 -14 -62 -48 -41 -92 34 -72 157 -53 157 24 0 49 -61
85 -116 68z"/>
<path d="M2585 6172 c-61 -20 -111 -90 -100 -141 10 -45 59 -96 105 -110 58
-17 128 0 166 40 25 26 29 39 29 84 0 46 -4 58 -29 84 -42 43 -114 61 -171 43z
m90 -56 c59 -25 73 -81 29 -121 -46 -42 -109 -31 -153 27 -16 22 8 72 47 92
34 19 35 19 77 2z"/>
<path d="M5800 5674 c-25 -7 -59 -14 -76 -14 -16 0 -39 -6 -49 -14 -19 -14
-19 -15 -1 -35 10 -11 41 -35 69 -53 48 -30 51 -31 106 -21 75 14 128 35 153
61 l22 21 -39 36 c-34 31 -45 35 -89 34 -28 0 -71 -7 -96 -15z"/>
<path d="M5046 5562 c-4 -6 6 -18 24 -27 107 -55 167 -201 125 -302 -18 -44
-14 -51 23 -32 106 55 172 126 172 188 0 75 -52 134 -140 158 -67 19 -196 28
-204 15z"/>
<path d="M3292 3890 c-46 -44 -10 -95 47 -66 37 20 46 44 25 67 -22 25 -45 24
-72 -1z"/>
<path d="M2316 5495 c-8 -8 -22 -15 -30 -15 -9 0 -16 -7 -16 -15 0 -19 26 -20
37 -2 4 8 16 16 26 20 18 7 24 27 8 27 -5 0 -16 -7 -25 -15z"/>
<path d="M2096 5381 c-8 -12 3 -41 15 -41 12 0 12 37 0 45 -5 3 -12 1 -15 -4z"/>
<path d="M2244 5365 c-19 -9 -37 -28 -48 -53 -16 -36 -16 -42 -3 -68 28 -54
54 -69 118 -69 54 0 62 3 84 30 78 96 -31 212 -151 160z m116 -54 c34 -65 -36
-119 -98 -75 -47 33 -15 94 49 94 28 0 41 -5 49 -19z"/>
<path d="M2270 5139 c0 -5 -14 -23 -32 -39 -17 -16 -29 -32 -25 -36 6 -7 87
67 87 80 0 3 -7 6 -15 6 -8 0 -15 -5 -15 -11z"/>
<path d="M6855 4798 c-67 -18 -117 -58 -147 -117 -16 -30 -28 -68 -28 -85 0
-78 71 -195 144 -234 81 -43 154 -52 240 -27 192 56 211 302 33 418 -82 52
-158 66 -242 45z m206 -98 c100 -80 124 -158 71 -234 -70 -101 -222 -107 -316
-12 -75 75 -79 173 -9 241 41 40 57 44 145 41 58 -3 72 -7 109 -36z"/>
<path d="M6895 4673 c-43 -11 -65 -44 -65 -96 0 -42 5 -54 33 -82 58 -58 155
-60 201 -4 14 17 26 39 26 49 0 33 -28 85 -58 107 -30 22 -101 36 -137 26z
m97 -80 c24 -21 23 -60 -1 -73 -30 -16 -50 -12 -77 15 -24 24 -24 26 -8 50 19
29 58 33 86 8z"/>
<path d="M5415 3903 c-61 -25 -113 -70 -145 -127 -38 -65 -41 -158 -10 -230
21 -46 97 -136 116 -136 5 0 15 -5 21 -11 23 -23 118 -49 180 -49 154 0 287
123 287 265 0 118 -97 241 -227 287 -64 22 -168 23 -222 1z m183 -99 c65 -13
142 -118 142 -193 0 -94 -126 -185 -213 -153 -18 7 -40 12 -48 12 -20 1 -50
28 -87 79 -54 74 -40 180 29 229 34 24 90 41 119 36 14 -2 40 -7 58 -10z"/>
<path d="M5485 3772 c-83 -27 -119 -118 -76 -197 21 -39 61 -75 85 -75 8 0 27
-5 41 -12 19 -9 34 -8 67 2 113 36 138 156 51 244 -41 41 -110 56 -168 38z
m50 -83 c4 -5 17 -9 28 -8 42 3 46 0 45 -38 -1 -66 -39 -103 -68 -68 -7 8 -23
15 -37 15 -23 0 -24 2 -17 48 3 26 8 50 11 55 6 11 31 9 38 -4z"/>
<path d="M2325 7192 c-50 -31 -58 -45 -41 -78 17 -37 39 -87 61 -144 10 -25
23 -58 31 -75 7 -16 15 -38 18 -47 7 -24 48 -23 70 1 13 14 16 28 11 53 -6 33
-4 36 49 71 55 36 57 37 86 22 29 -15 32 -15 66 11 50 39 49 41 -71 95 -38 17
-107 49 -152 70 -45 22 -85 39 -90 39 -4 0 -21 -8 -38 -18z m128 -116 c37 -16
38 -18 24 -39 -22 -34 -42 -32 -66 8 -19 33 -20 62 -3 53 4 -2 24 -12 45 -22z"/>
<path d="M6852 7077 c-32 -34 -29 -90 7 -136 42 -53 44 -75 5 -79 -35 -3 -81
28 -95 65 -12 32 -34 39 -63 19 -33 -21 -24 -49 30 -101 47 -46 127 -78 172
-69 51 10 75 37 76 86 1 35 -5 52 -32 86 -38 48 -39 78 -2 74 27 -3 77 -46 86
-74 7 -23 22 -23 53 1 22 17 23 21 12 47 -6 16 -35 46 -63 67 -44 32 -57 37
-108 37 -46 0 -60 -4 -78 -23z"/>
<path d="M1985 6884 c-17 -19 -31 -40 -33 -45 -2 -5 11 -34 28 -64 17 -30 29
-59 25 -65 -3 -5 -45 -10 -94 -10 -86 0 -88 -1 -119 -33 l-32 -33 20 -19 c37
-34 214 -145 231 -145 22 0 51 35 47 57 -2 9 -12 22 -23 28 -44 23 -75 48 -69
56 3 5 43 9 89 9 46 0 86 4 90 10 3 5 -8 37 -24 70 -23 50 -26 63 -14 67 7 3
22 -2 32 -11 10 -9 22 -16 28 -16 6 0 16 -7 23 -15 7 -8 25 -15 41 -15 31 0
73 34 66 53 -6 16 -244 157 -265 157 -9 0 -31 -16 -47 -36z"/>
<path d="M7448 6427 c-36 -23 -74 -48 -84 -55 -10 -7 -27 -15 -36 -18 -21 -7
-24 -37 -5 -56 38 -39 145 -193 214 -308 46 -76 151 -290 183 -370 11 -30 25
-64 30 -75 17 -41 70 -204 70 -218 0 -8 6 -37 14 -63 47 -164 76 -390 76 -595
0 -161 -21 -390 -46 -496 -8 -34 -14 -73 -14 -88 0 -14 -5 -35 -11 -46 -6 -11
-14 -41 -19 -67 -22 -117 -90 -309 -178 -502 -83 -182 -131 -267 -231 -415
-147 -217 -396 -489 -586 -640 -27 -22 -59 -48 -70 -57 -25 -22 -254 -178
-260 -178 -2 0 -23 -13 -47 -29 -75 -50 -226 -129 -353 -186 -106 -47 -119
-53 -165 -70 -25 -9 -60 -23 -78 -31 -18 -8 -39 -14 -47 -14 -8 0 -29 -6 -47
-14 -65 -28 -309 -92 -453 -120 -286 -55 -478 -71 -765 -62 -228 6 -344 15
-450 35 -94 17 -209 41 -255 53 -22 5 -58 14 -80 19 -22 5 -71 18 -110 29 -38
12 -83 25 -100 30 -29 8 -64 20 -135 45 -448 162 -881 438 -1220 777 -308 308
-526 635 -685 1028 -10 25 -24 59 -31 77 -8 17 -14 36 -14 42 0 6 -6 25 -14
43 -8 18 -21 58 -29 88 -9 30 -23 79 -31 109 -9 29 -16 61 -16 70 0 9 -6 45
-14 81 -32 148 -39 218 -43 473 -3 182 -1 294 7 350 7 45 14 98 16 117 12 106
71 353 109 460 87 243 168 405 297 599 38 57 68 110 66 118 -2 7 -40 31 -85
52 -45 21 -89 43 -97 50 -26 22 -49 8 -91 -54 -184 -271 -336 -617 -419 -950
-8 -33 -21 -87 -30 -120 -37 -148 -66 -438 -66 -651 0 -109 25 -438 35 -453 3
-5 10 -40 15 -78 5 -37 15 -88 21 -113 19 -75 40 -153 51 -185 5 -16 13 -43
18 -60 13 -46 31 -97 46 -127 8 -14 14 -33 14 -41 0 -9 6 -28 14 -44 8 -15 21
-44 29 -63 25 -57 143 -292 166 -330 11 -19 25 -44 31 -55 6 -11 19 -33 30
-50 11 -16 23 -37 27 -45 3 -8 19 -31 35 -51 15 -20 28 -40 28 -43 0 -4 5 -12
10 -19 6 -7 42 -54 80 -106 77 -104 191 -233 315 -356 294 -294 686 -562 1053
-720 18 -8 47 -21 65 -28 17 -8 52 -22 77 -32 25 -9 60 -23 78 -31 18 -8 40
-14 48 -14 9 0 28 -6 42 -14 15 -7 54 -21 87 -31 33 -10 74 -22 90 -27 68 -22
132 -40 170 -47 22 -5 60 -13 85 -19 148 -35 313 -62 450 -73 331 -27 713 -20
900 16 42 8 91 15 110 15 19 0 51 5 70 10 19 6 62 15 95 20 59 9 100 19 202
46 101 27 168 46 203 59 81 29 107 37 135 45 17 5 46 15 65 23 39 15 55 22
195 82 61 26 242 117 300 150 33 19 69 39 80 45 107 57 368 242 480 341 67 59
300 292 354 354 78 90 281 365 281 381 0 3 11 20 24 37 14 18 29 43 35 57 6
14 21 41 32 60 23 38 113 214 135 267 8 18 21 47 28 65 8 18 21 50 30 71 9 21
16 44 16 52 0 7 6 26 14 42 8 15 22 55 32 88 19 69 36 127 58 206 9 31 16 64
16 75 0 10 6 51 14 89 35 163 46 300 46 543 0 241 -7 326 -46 542 -22 126 -64
287 -90 348 -8 18 -14 39 -14 47 0 8 -6 29 -14 47 -8 18 -22 53 -31 78 -64
170 -224 476 -317 605 -16 22 -51 71 -78 109 -27 39 -56 73 -63 77 -8 5 -38
-8 -79 -34z"/>
<path d="M6835 3799 c-43 -38 -46 -74 -9 -118 22 -27 32 -31 74 -31 41 0 52 4
69 26 38 48 23 111 -32 137 -48 23 -61 22 -102 -14z"/>
<path d="M4943 3320 c-29 -17 -33 -25 -33 -63 0 -54 30 -86 87 -94 32 -4 45
-1 66 18 25 23 32 46 29 97 -2 26 -55 62 -92 62 -14 0 -40 -9 -57 -20z"/>
</g>
</svg>
