<?xml version="1.0" encoding="utf-8"?>
<svg viewBox="0 0 500 500" xmlns="http://www.w3.org/2000/svg">
  <path d="M 188.459 203.386 L 230.609 203.386 C 232.95 203.386 235.291 201.152 235.291 198.919 L 235.291 165.419 C 235.291 163.185 232.95 160.951 230.609 160.951 L 188.459 160.951 C 186.116 160.951 183.775 163.185 183.775 165.419 L 183.775 201.152 C 183.775 201.152 186.116 203.386 188.459 203.386 Z M 244.66 254.752 L 286.809 254.752 C 289.151 254.752 291.492 252.519 291.492 250.285 L 291.492 214.551 C 291.492 212.319 289.151 210.086 286.809 210.086 L 244.66 210.086 C 242.317 210.086 239.975 212.319 239.975 214.551 L 239.975 250.285 C 239.975 252.519 242.317 254.752 244.66 254.752 Z M 244.66 203.386 L 286.809 203.386 C 289.151 203.386 291.492 201.152 291.492 198.919 L 291.492 165.419 L 286.809 160.951 L 244.66 160.951 C 242.317 160.951 239.975 163.185 239.975 165.419 L 239.975 201.152 C 239.975 201.152 242.317 203.386 244.66 203.386 Z M 303.201 254.752 L 345.351 254.752 C 347.692 254.752 350.035 252.519 350.035 250.285 L 350.035 214.551 C 350.035 212.319 347.692 210.086 345.351 210.086 L 303.201 210.086 C 300.858 210.086 298.517 212.319 298.517 214.551 L 298.517 250.285 C 298.517 252.519 300.858 254.752 303.201 254.752 Z M 244.66 152.018 L 286.809 152.018 C 289.151 152.018 291.492 149.786 291.492 147.552 L 291.492 114.052 C 291.492 111.819 289.151 109.585 286.809 109.585 L 244.66 109.585 C 242.317 109.585 239.975 111.819 239.975 114.052 L 239.975 149.786 C 239.975 152.018 242.317 152.018 244.66 152.018 Z M 71.374 254.752 L 113.524 254.752 C 115.866 254.752 118.208 252.519 118.208 250.285 L 118.208 214.551 C 118.208 212.319 115.866 210.086 113.524 210.086 L 71.374 210.086 C 69.033 210.086 66.691 212.319 66.691 214.551 L 66.691 250.285 L 71.374 254.752 Z M 492.878 232.418 C 481.17 225.719 467.119 221.253 455.411 223.485 C 448.386 223.485 441.36 223.485 436.677 225.719 C 431.995 205.619 420.285 187.752 403.893 178.818 L 396.868 174.352 L 392.185 181.052 C 385.161 185.519 380.477 194.452 378.135 205.619 C 373.451 223.485 375.794 241.352 385.161 254.752 C 373.451 259.218 361.743 261.452 350.035 263.686 L 43.275 263.686 C 36.249 263.686 29.224 270.386 29.224 277.085 C 29.224 303.885 33.906 328.452 43.275 353.019 C 52.641 377.586 69.033 397.687 90.107 411.086 C 122.89 426.719 158.017 433.42 193.142 431.186 C 211.875 431.186 230.609 428.953 249.342 426.719 C 275.101 422.253 300.858 413.319 324.276 399.918 C 343.01 388.753 359.402 375.352 375.794 359.719 C 396.868 335.152 413.26 308.353 424.969 277.085 L 429.652 277.085 C 448.386 277.085 467.119 270.386 481.17 259.218 C 488.195 254.752 492.878 248.051 495.22 239.118 L 497.561 234.652 L 492.878 232.418 Z M 129.916 254.752 L 169.724 254.752 C 172.067 254.752 174.408 252.519 174.408 250.285 L 174.408 214.551 C 174.408 212.319 172.067 210.086 169.724 210.086 L 129.916 210.086 C 127.574 210.086 125.233 212.319 125.233 214.551 L 125.233 250.285 C 125.233 252.519 127.574 254.752 129.916 254.752 Z M 129.916 203.386 L 169.724 203.386 C 172.067 203.386 174.408 201.152 174.408 198.919 L 174.408 165.419 C 174.408 163.185 172.067 160.951 169.724 160.951 L 129.916 160.951 C 127.574 160.951 125.233 163.185 125.233 165.419 L 125.233 201.152 C 125.233 201.152 127.574 203.386 129.916 203.386 Z M 188.459 254.752 L 230.609 254.752 C 232.95 254.752 235.291 252.519 235.291 250.285 L 235.291 214.551 C 235.291 212.319 232.95 210.086 230.609 210.086 L 188.459 210.086 C 186.116 210.086 183.775 212.319 183.775 214.551 L 183.775 250.285 C 183.775 252.519 186.116 254.752 188.459 254.752 Z" style="" transform="matrix(0.9999999999999999, 0, 0, 0.9999999999999999, 0, 0)"/>
  <g transform="matrix(3.1959040164947505, 0, 0, 3.002147912979126, 6.111372947692871, 34.02112960815429)" style="">
    <g>
      <path d="M43.454,18.443h-2.437c-0.453-1.766-1.16-3.42-2.082-4.933l1.752-1.756c0.473-0.473,0.733-1.104,0.733-1.774&#10;&#9;&#9;&#9;c0-0.669-0.262-1.301-0.733-1.773l-2.92-2.917c-0.947-0.948-2.602-0.947-3.545-0.001l-1.826,1.815&#10;&#9;&#9;&#9;C30.9,6.232,29.296,5.56,27.529,5.128V2.52c0-1.383-1.105-2.52-2.488-2.52h-4.128c-1.383,0-2.471,1.137-2.471,2.52v2.607&#10;&#9;&#9;&#9;c-1.766,0.431-3.38,1.104-4.878,1.977l-1.825-1.815c-0.946-0.948-2.602-0.947-3.551-0.001L5.27,8.205&#10;&#9;&#9;&#9;C4.802,8.672,4.535,9.318,4.535,9.978c0,0.669,0.259,1.299,0.733,1.772l1.752,1.76c-0.921,1.513-1.629,3.167-2.081,4.933H2.501&#10;&#9;&#9;&#9;C1.117,18.443,0,19.555,0,20.935v4.125c0,1.384,1.117,2.471,2.501,2.471h2.438c0.452,1.766,1.159,3.43,2.079,4.943l-1.752,1.763&#10;&#9;&#9;&#9;c-0.474,0.473-0.734,1.106-0.734,1.776s0.261,1.303,0.734,1.776l2.92,2.919c0.474,0.473,1.103,0.733,1.772,0.733&#10;&#9;&#9;&#9;s1.299-0.261,1.773-0.733l1.833-1.816c1.498,0.873,3.112,1.545,4.878,1.978v2.604c0,1.383,1.088,2.498,2.471,2.498h4.128&#10;&#9;&#9;&#9;c1.383,0,2.488-1.115,2.488-2.498v-2.605c1.767-0.432,3.371-1.104,4.869-1.977l1.817,1.812c0.474,0.475,1.104,0.735,1.775,0.735&#10;&#9;&#9;&#9;c0.67,0,1.301-0.261,1.774-0.733l2.92-2.917c0.473-0.472,0.732-1.103,0.734-1.772c0-0.67-0.262-1.299-0.734-1.773l-1.75-1.77&#10;&#9;&#9;&#9;c0.92-1.514,1.627-3.179,2.08-4.943h2.438c1.383,0,2.52-1.087,2.52-2.471v-4.125C45.973,19.555,44.837,18.443,43.454,18.443z&#10;&#9;&#9;&#9; M22.976,30.85c-4.378,0-7.928-3.517-7.928-7.852c0-4.338,3.55-7.85,7.928-7.85c4.379,0,7.931,3.512,7.931,7.85&#10;&#9;&#9;&#9;C30.906,27.334,27.355,30.85,22.976,30.85z"/>
    </g>
  </g>
</svg>