<?xml version="1.0" encoding="utf-8"?>
<svg viewBox="0 0 500 500" xmlns="http://www.w3.org/2000/svg">
  <path d="M 202.738 152.159 L 243.019 152.159 C 245.258 152.159 247.496 149.934 247.496 147.708 L 247.496 114.333 C 247.496 112.107 245.258 109.881 243.019 109.881 L 202.738 109.881 C 200.503 109.881 198.265 112.107 198.265 114.333 L 198.265 149.934 C 198.265 149.934 200.503 152.159 202.738 152.159 Z M 256.447 203.336 L 296.726 203.336 C 298.963 203.336 301.201 201.113 301.201 198.887 L 301.201 163.283 C 301.201 161.06 298.963 158.835 296.726 158.835 L 256.447 158.835 C 254.208 158.835 251.971 161.06 251.971 163.283 L 251.971 198.887 C 251.971 201.113 254.208 203.336 256.447 203.336 Z M 256.447 152.159 L 296.726 152.159 C 298.963 152.159 301.201 149.934 301.201 147.708 L 301.201 114.333 L 296.726 109.881 L 256.447 109.881 C 254.208 109.881 251.971 112.107 251.971 114.333 L 251.971 149.934 C 251.971 149.934 254.208 152.159 256.447 152.159 Z M 312.389 203.336 L 352.671 203.336 C 354.908 203.336 357.147 201.113 357.147 198.887 L 357.147 163.283 C 357.147 161.06 354.908 158.835 352.671 158.835 L 312.389 158.835 C 310.153 158.835 307.915 161.06 307.915 163.283 L 307.915 198.887 C 307.915 201.113 310.153 203.336 312.389 203.336 Z M 256.447 100.983 L 296.726 100.983 C 298.963 100.983 301.201 98.757 301.201 96.532 L 301.201 63.156 C 301.201 60.931 298.963 58.705 296.726 58.705 L 256.447 58.705 C 254.208 58.705 251.971 60.931 251.971 63.156 L 251.971 98.757 C 251.971 100.983 254.208 100.983 256.447 100.983 Z M 90.852 203.336 L 131.131 203.336 C 133.368 203.336 135.607 201.113 135.607 198.887 L 135.607 163.283 C 135.607 161.06 133.368 158.835 131.131 158.835 L 90.852 158.835 C 88.613 158.835 86.375 161.06 86.375 163.283 L 86.375 198.887 L 90.852 203.336 Z M 493.649 181.085 C 482.461 174.411 469.034 169.962 457.844 172.185 C 451.132 172.185 444.418 172.185 439.944 174.411 C 435.467 154.385 424.279 136.584 408.615 127.683 L 401.901 123.235 L 397.425 129.909 C 390.712 134.359 386.236 143.259 383.998 154.385 C 379.524 172.185 381.761 189.986 390.712 203.336 C 379.524 207.789 368.335 210.012 357.147 212.237 L 63.998 212.237 C 57.284 212.237 50.571 218.913 50.571 225.587 C 50.571 252.29 55.047 276.767 63.998 301.241 C 72.949 325.717 88.613 345.745 108.753 359.094 C 140.083 374.669 173.65 381.346 207.215 379.12 C 225.117 379.12 243.019 376.897 260.923 374.669 C 285.538 370.218 310.153 361.321 332.53 347.968 C 350.432 336.844 366.097 323.493 381.761 307.918 C 401.901 283.441 417.566 256.739 428.754 225.587 L 433.228 225.587 C 451.132 225.587 469.034 218.913 482.461 207.789 C 489.175 203.336 493.649 196.661 495.887 187.761 L 498.125 183.311 L 493.649 181.085 Z M 146.796 203.336 L 184.839 203.336 C 187.076 203.336 189.314 201.113 189.314 198.887 L 189.314 163.283 C 189.314 161.06 187.076 158.835 184.839 158.835 L 146.796 158.835 C 144.557 158.835 142.32 161.06 142.32 163.283 L 142.32 198.887 C 142.32 201.113 144.557 203.336 146.796 203.336 Z M 146.796 152.159 L 184.839 152.159 C 187.076 152.159 189.314 149.934 189.314 147.708 L 189.314 114.333 C 189.314 112.107 187.076 109.881 184.839 109.881 L 146.796 109.881 C 144.557 109.881 142.32 112.107 142.32 114.333 L 142.32 149.934 C 142.32 149.934 144.557 152.159 146.796 152.159 Z M 202.738 203.336 L 243.019 203.336 C 245.258 203.336 247.496 201.113 247.496 198.887 L 247.496 163.283 C 247.496 161.06 245.258 158.835 243.019 158.835 L 202.738 158.835 C 200.503 158.835 198.265 161.06 198.265 163.283 L 198.265 198.887 C 198.265 201.113 200.503 203.336 202.738 203.336 Z" style="" transform="matrix(0.9999999999999999, 0, 0, 0.9999999999999999, 0, 0)"/>
  <rect x="50.55" y="31.312" width="30.493" height="120.784" style="fill: rgb(0, 0, 0); stroke: rgb(0, 0, 0);" transform="matrix(0.9999999999999999, 0, 0, 0.9999999999999999, 0, 0)"/>
  <rect x="4.81" y="76.606" width="121.971" height="30.196" style="fill: rgb(0, 0, 0); stroke: rgb(0, 0, 0);" transform="matrix(0.9999999999999999, 0, 0, 0.9999999999999999, 0, 0)"/>
</svg>