<svg id="Layer_1" data-name="Layer 1" xmlns="http://www.w3.org/2000/svg" viewBox="0 0 225 225"><defs><style>.cls-1{fill:#fff;}</style></defs><path d="M194,225H47a14.33,14.33,0,0,0-2.51-1,34.71,34.71,0,0,1-19-10.42c-7.53-7.88-10.58-17.76-10.48-28.73.16-18.49,0-37,0-55.47v-5.16l6-.51c0-14.21,0-28.17,0-42.12,0-1.47-.32-3.44.46-4.32,5-5.61,10.34-11,15.67-16.54l18.75,20C54.56,84.45,54.25,89.3,51.76,91,49,93,44.24,92,40.34,92.37v31.45h8.24c2.15-7,4.08-13.87,6.4-20.62,2.09-6.09,4.67-12,6.9-18,2.55-6.88,2.49-6.9,9.26-4.59.6.21,1.23.33,2,.55a10.24,10.24,0,0,0,1.27-2.07c3.22-10.76,5.74-21.77,9.73-32.22C89.31,33.37,89.29,18.68,95,5.45c.76-1.77,1.34-3.63,2-5.45h2c4.67,1.11,7.33,3.62,6,8.78-1.08,4.06-2,8.18-3.48,12.12S97.79,28.16,96.58,32c-3.94,12.4-7.6,24.9-11.27,37.39-1.37,4.62-2.49,9.31-3.74,14.05,2.28.69,4.13.77,5.28,1.71,1.62,1.35,3.79,3.31,3.82,5,0,2.94-1.37,5.92-2.21,8.87-2.34,8.22-4.7,16.44-7,24.57H97.88c-3.42-3.11-6-5.22-8.26-7.63a5.17,5.17,0,0,1-1.45-3.86c1.21-5.72,2.57-11.43,4.3-17,1.92-6.19,1-9-4.56-12.39A9.3,9.3,0,0,1,86,80.49l1.52-1.37,44.83,44.79,1.17-1.1-11.22-12.36c1-1.37,1.87-2.91,3-4.26q11.82-13.92,23.72-27.77c2.75-3.2,4-6.1,2.22-10.75-1.61-4.31-1.37-9.47-1.25-14.24.41-15.58,14.31-29.51,32.41-31.12a4.49,4.49,0,0,1,3.43,2,4.1,4.1,0,0,1-.41,3.64c-4.67,6.29-9.53,12.43-14.18,18.43,2.35,5.19,4.49,10.14,6.82,15a4.87,4.87,0,0,0,2.52,2.55,127.72,127.72,0,0,0,14.84,3,6.76,6.76,0,0,0,5.05-2.13c4-4.72,7.59-9.84,11.54-14.64.86-1.05,2.83-2.12,3.9-1.81a5,5,0,0,1,2.87,3.44,49.81,49.81,0,0,1,.14,9c-.58,15.27-14.5,30.73-29.56,30.82C178.91,91.59,172.2,94,167,103.2c-4.07,7.21-9.65,13.57-14.66,20.45H200c0-10.33,0-20.31.06-30.29a4,4,0,0,1,1.27-3c5.88-3.9,11.88-7.62,17.75-11.34v45H225v72c-3.11,5.6-5.71,11.58-9.45,16.72C210.36,219.88,202,222.31,194,225Z"/><path class="cls-1" d="M225,124h-5.92V79.05c-5.87,3.72-11.87,7.44-17.75,11.34a4,4,0,0,0-1.27,3c-.1,10-.06,20-.06,30.29H152.38c5-6.88,10.59-13.24,14.66-20.45,5.16-9.16,11.87-11.61,22.38-11.68C204.48,91.43,218.4,76,219,60.7a49.81,49.81,0,0,0-.14-9A5,5,0,0,0,216,48.28c-1.07-.31-3,.76-3.9,1.81-3.95,4.8-7.51,9.92-11.54,14.64a6.76,6.76,0,0,1-5.05,2.13,127.72,127.72,0,0,1-14.84-3,4.87,4.87,0,0,1-2.52-2.55c-2.33-4.85-4.47-9.8-6.82-15,4.65-6,9.51-12.14,14.18-18.43a4.1,4.1,0,0,0,.41-3.64,4.49,4.49,0,0,0-3.43-2c-18.1,1.61-32,15.54-32.41,31.12-.12,4.77-.36,9.93,1.25,14.24,1.75,4.65.53,7.55-2.22,10.75q-11.9,13.85-23.72,27.77c-1.15,1.35-2.06,2.89-3,4.26l11.22,12.36-1.17,1.1L87.56,79.12,86,80.49a9.3,9.3,0,0,0,1.87,2.25c5.6,3.42,6.48,6.2,4.56,12.39-1.73,5.58-3.09,11.29-4.3,17A5.17,5.17,0,0,0,89.62,116c2.26,2.41,4.84,4.52,8.26,7.63H81.43c2.33-8.13,4.69-16.35,7-24.57.84-3,2.26-5.93,2.21-8.87,0-1.74-2.2-3.7-3.82-5-1.15-.94-3-1-5.28-1.71,1.25-4.74,2.37-9.43,3.74-14.05C89,56.89,92.64,44.39,96.58,32c1.21-3.83,3.53-7.3,4.91-11.09s2.4-8.06,3.48-12.12c1.36-5.16-1.3-7.67-6-8.78H225ZM144,45.6c-13.7,0-27.82-.08-41.94.13-1.26,0-3.17,1.7-3.63,3a162.88,162.88,0,0,0-5,17.17,7.09,7.09,0,0,0,1.53,5.54c5.91,6.31,12.09,12.37,18.27,18.42,3.41,3.34,13.07,2.84,16.17-.8,5.41-6.31,10.78-12.66,16-19.1A5.91,5.91,0,0,0,146.67,66C146,59.47,145,53,144,45.6Zm37,.07c2.16,3.46,3.11,6.81,5.28,8.08,6.3,3.7,10.78,2.12,15.61-3.53s7.62-13.74,16.8-13.53V31.34H200.86V45.67Z"/><path class="cls-1" d="M97,0c-.66,1.82-1.24,3.68-2,5.45-5.71,13.23-5.69,27.92-10.82,41.38-4,10.45-6.51,21.46-9.73,32.22a10.24,10.24,0,0,1-1.27,2.07c-.81-.22-1.44-.34-2-.55-6.77-2.31-6.71-2.29-9.26,4.59-2.23,6-4.81,12-6.9,18-2.32,6.75-4.25,13.64-6.4,20.62H40.34V92.37C44.24,92,49,93,51.76,91c2.49-1.74,2.8-6.59,4.15-10.28l-18.75-20c-5.33,5.56-10.63,10.93-15.67,16.54-.78.88-.46,2.85-.46,4.32,0,14,0,27.91,0,42.12l-6,.51v5.16c0,18.49.12,37,0,55.47-.1,11,3,20.85,10.48,28.73a34.71,34.71,0,0,0,19,10.42A14.33,14.33,0,0,1,47,225H0V55L19.93,73.92C25.14,67.48,30.05,61.39,35,55.24l22.71,23L71.3,76.51c2.23-3,1.28-5.55-1.76-8.42C61.8,60.78,54.49,53,46.84,45.6c-1.94-1.87-2.13-3.32-1-5.59A25.52,25.52,0,0,1,64.72,25.93,22,22,0,0,0,69,24.16,8.53,8.53,0,0,0,64.44,21C55.1,18.51,46,19.65,38.13,25,27.1,32.54,16.64,40.93,6,49c-2.07,1.56-4,3.33-6,5V0ZM64.79,45.89l9.7,11.49c1.15-4.19,2.12-7.72,3.16-11.49Z"/><path d="M0,54c2-1.68,3.9-3.45,6-5C16.64,40.93,27.1,32.54,38.13,25c7.85-5.36,17-6.5,26.31-4.05A8.53,8.53,0,0,1,69,24.16a22,22,0,0,1-4.29,1.77A25.52,25.52,0,0,0,45.89,40c-1.18,2.27-1,3.72,1,5.59,7.65,7.4,15,15.18,22.7,22.49,3,2.87,4,5.38,1.76,8.42L57.74,78.26,35,55.24c-5,6.15-9.89,12.24-15.1,18.68L0,55Z"/><path class="cls-1" d="M194,225c8-2.69,16.36-5.12,21.55-12.28,3.74-5.14,6.34-11.12,9.45-16.72v29Z"/><path d="M144,45.6c1,7.36,2,13.87,2.72,20.41A5.91,5.91,0,0,1,145.36,70c-5.24,6.44-10.61,12.79-16,19.1-3.1,3.64-12.76,4.14-16.17.8-6.18-6-12.36-12.11-18.27-18.42a7.09,7.09,0,0,1-1.53-5.54,162.88,162.88,0,0,1,5-17.17c.46-1.3,2.37-3,3.63-3C116.13,45.52,130.25,45.6,144,45.6Z"/><path d="M181,45.67h19.9V31.34h17.79v5.35c-9.18-.21-12,7.92-16.8,13.53s-9.31,7.23-15.61,3.53C184.07,52.48,183.12,49.13,181,45.67Z"/><path d="M64.79,45.89H77.65c-1,3.77-2,7.3-3.16,11.49Z"/></svg>